<svg xmlns="http://www.w3.org/2000/svg" viewBox="0 0 760 720" role="img" aria-labelledby="t d"><title id="t">Painel de estratégia comercial</title><desc id="d">Painel editorial com indicadores de conversão, pipeline e plano comercial.</desc><rect width="760" height="720" rx="12" fill="#263d44"/><rect x="34" y="34" width="692" height="652" rx="8" fill="#2b4249" stroke="#53676d"/><text x="58" y="73" fill="#b9c4c6" font-family="Roboto,Arial,sans-serif" font-size="14">GESTÃO COMERCIAL</text><text x="58" y="119" fill="#f5f4ef" font-family="Roboto,Arial,sans-serif" font-size="32" font-weight="700">Estratégia que vira resultado.</text><line x1="58" y1="145" x2="702" y2="145" stroke="#60737a"/><text x="58" y="184" fill="#aebbbd" font-family="Roboto,Arial,sans-serif" font-size="13">Evolução de conversão</text><g stroke="#50636a" stroke-width="1"><line x1="58" y1="224" x2="702" y2="224"/><line x1="58" y1="274" x2="702" y2="274"/><line x1="58" y1="324" x2="702" y2="324"/></g><path d="M64 313 C128 298 162 304 218 281 C276 257 310 269 362 246 C418 222 456 239 510 211 C565 183 618 205 695 166" fill="none" stroke="#d4b36a" stroke-width="3"/><g fill="#d4b36a"><circle cx="64" cy="313" r="4"/><circle cx="218" cy="281" r="4"/><circle cx="362" cy="246" r="4"/><circle cx="510" cy="211" r="4"/><circle cx="695" cy="166" r="4"/></g><text x="58" y="371" fill="#aebbbd" font-family="Roboto,Arial,sans-serif" font-size="13">Resumo da operação</text><line x1="58" y1="392" x2="702" y2="392" stroke="#60737a"/><g font-family="Roboto,Arial,sans-serif"><text x="58" y="430" fill="#9eabad" font-size="12">INDICADOR</text><text x="350" y="430" fill="#9eabad" font-size="12">ATUAL</text><text x="530" y="430" fill="#9eabad" font-size="12">OBJETIVO</text><line x1="58" y1="446" x2="702" y2="446" stroke="#53676d"/><text x="58" y="482" fill="#eef0ec" font-size="15">Conversão</text><text x="350" y="482" fill="#eef0ec" font-size="15">15%</text><text x="530" y="482" fill="#c9ab67" font-size="15">18%</text><line x1="58" y1="500" x2="702" y2="500" stroke="#53676d"/><text x="58" y="536" fill="#eef0ec" font-size="15">Pipeline</text><text x="350" y="536" fill="#eef0ec" font-size="15">360°</text><text x="530" y="536" fill="#c9ab67" font-size="15">Acompanhado</text><line x1="58" y1="554" x2="702" y2="554" stroke="#53676d"/><text x="58" y="590" fill="#eef0ec" font-size="15">Plano comercial</text><text x="350" y="590" fill="#eef0ec" font-size="15">30 dias</text><text x="530" y="590" fill="#c9ab67" font-size="15">Em execução</text></g><line x1="58" y1="624" x2="702" y2="624" stroke="#60737a"/><text x="58" y="654" fill="#95a3a6" font-family="Roboto,Arial,sans-serif" font-size="12">Dados • Processo • Decisão • Ação</text></svg>